# xmcd
#
# Track frame offsets:
#	150
#	23354
#	69093
#	101280
#	168742
#	201476
#	236903
#
# Disc length: 3642 seconds
#
# Revision: 1
# Processed by: cddbd v1.5.2PL0 Copyright (c) Steve Scherf et al.
# Submitted via: audiograbber 1.83.01
#
DISCID=540e3807
DTITLE=Mark Knopfler - Live in Roma 2010
DYEAR=2010
DGENRE=Folk
TTITLE0=Done with Bonaparte
TTITLE1=Marbletown
TTITLE2=Speedway at Nazareth
TTITLE3=Telegraph Road
TTITLE4=Brothers in Arms
TTITLE5=So Far Away
TTITLE6=Piper to the End
EXTD=
EXTT0=
EXTT1=
EXTT2=
EXTT3=
EXTT4=
EXTT5=
EXTT6=
PLAYORDER=
